<?xml version="1.0" encoding="utf-8"?>
<!-- Generator: Adobe Illustrator 23.0.1, SVG Export Plug-In . SVG Version: 6.00 Build 0)  -->
<svg version="1.1" id="Layer_1" xmlns="http://www.w3.org/2000/svg" xmlns:xlink="http://www.w3.org/1999/xlink" x="0px" y="0px"
	 viewBox="0 0 4007 1854" style="enable-background:new 0 0 4007 1854;" xml:space="preserve">
<style type="text/css">
	.st0{fill:#29ABE2;}
	.st1{fill:#FFFFFF;}
</style>
<g>
	<path class="st0" d="M3981.23,920.79L2022.67,11.17l-2.7,1.23L25.23,920.79l-0.79,0.36l1995.53,920.49l2.7,1.24L3982,921.15
		L3981.23,920.79z M2022.1,1690.62l-2.12-0.98L355.7,921.96l2.55-1.16l1661.72-756.74l2.13-0.97l1631.46,757.71l2.5,1.16
		L2022.1,1690.62z"/>
	<path class="st1" d="M2726.61,683.72c-57.09-49.58-138.67-74.4-244.73-74.4h-259.12h-110.42v103.4h110.42h21.74v-0.04h238.48
		c62.62,0,110.05,15.26,142.16,45.65c32.06,30.45,48.08,75.17,48.08,134.25c0,9.87-0.56,19.18-1.42,28.22
		c-4.89,51.74-23.62,89.98-56.56,114.55c-38.58,28.74-104.19,43.22-196.82,43.22h-63.17v0.03h-132.5V968.17h-110.42v110.42v108.74
		h110.42h224.63c58.37,0,106.17-3.54,143.54-10.61c37.36-7.19,68.65-18.57,93.85-34.21c40.46-24.81,71.79-58.75,94.07-101.97
		c18.53-36.14,29.22-76.08,32.27-119.74c0.6-8.56,1.01-17.21,1.01-26.06C2812.11,803.65,2783.65,733.29,2726.61,683.72z"/>
	<path class="st1" d="M1821.32,1078.59h-294.18v-157.8V714.22h0.74h336.03v110.42h110.42v-15.86v-94.55v-89.72v-15.17h-92.67
		h-345.04c-7.14,0-13.97,0.16-20.52,0.48c-44.96,2.16-76.01,11.71-93.23,28.54c-19.73,19.29-29.52,55.22-29.52,107.72v174.74v129.8
		c0,52.89,9.79,88.87,29.52,108c17.22,16.74,48.27,26.15,93.23,28.27c6.55,0.31,13.38,0.47,20.52,0.47h345.04
		c6.53,0,12.8-0.13,18.83-0.4h74.02v-108.66h-153.19V1078.59z"/>
</g>
</svg>
