<?xml version="1.0" encoding="utf-8"?>
<!-- Generator: Adobe Illustrator 23.0.1, SVG Export Plug-In . SVG Version: 6.00 Build 0)  -->
<svg version="1.1" id="Layer_1" xmlns="http://www.w3.org/2000/svg" xmlns:xlink="http://www.w3.org/1999/xlink" x="0px" y="0px"
	 viewBox="0 0 2000 2000" style="enable-background:new 0 0 2000 2000;" xml:space="preserve">
<style type="text/css">
	.st0{fill:#29ABE2;}
	.st1{fill:none;stroke:#29ABE2;stroke-width:70;stroke-miterlimit:10;}
	.st2{fill:none;stroke:#29ABE2;stroke-width:70;stroke-linejoin:round;stroke-miterlimit:10;}
	.st3{fill:none;}
</style>
<g>
	<path class="st0" d="M2254.52-1437.51c-5.71-163.39-71.38-316.27-186.51-433.25c-1.24-1.26-2.46-2.55-3.71-3.8
		c-9.84-9.84-19.96-19.28-30.3-28.41c-55.81-49.24-118.71-87.99-186.3-115.26c-35.74-14.42-72.79-25.62-110.79-33.47
		c-35.81-7.39-72.46-11.79-109.66-13.09c-7.74-0.27-15.5-0.45-23.28-0.45s-15.54,0.18-23.28,0.45c-31.56,1.1-62.73,4.43-93.32,9.93
		c-43.44,7.81-85.71,19.99-126.31,36.3c-67.9,27.28-131.09,66.15-187.12,115.58c-10.34,9.12-20.47,18.57-30.3,28.41
		c-1.26,1.26-2.47,2.54-3.71,3.8c-115.14,116.98-180.81,269.86-186.51,433.25c-0.27,7.74-0.45,15.5-0.45,23.28
		s0.18,15.54,0.45,23.28c5.77,165.16,72.77,319.6,190.22,437.05c6.86,6.86,13.87,13.52,20.98,20.04
		c11.67,10.69,23.66,20.91,35.95,30.65c49.15,38.96,103.14,70.26,160.49,93.3c40.6,16.31,82.87,28.49,126.31,36.3
		c30.59,5.5,61.76,8.83,93.32,9.93c7.74,0.27,15.5,0.45,23.28,0.45s15.54-0.18,23.28-0.45c37.2-1.3,73.85-5.7,109.66-13.09
		c38-7.84,75.05-19.05,110.79-33.47c57.05-23.01,110.76-54.2,159.68-92.97c12.29-9.74,24.29-19.96,35.95-30.65
		c7.11-6.52,14.12-13.18,20.98-20.04c117.46-117.46,184.46-271.9,190.22-437.05c0.27-7.74,0.45-15.5,0.45-23.28
		S2254.79-1429.77,2254.52-1437.51z M2207.92-1437.51h-186.6c-4.04-115.57-38.06-225.88-98.38-321.96
		c39.36-22.19,76.55-48.64,111.05-79.08C2136.68-1734.5,2201.98-1593.49,2207.92-1437.51z M1627.24-1961.48
		c89.8,42.25,167.58,105.95,226.69,184.48c-69.55,31.72-146.13,50.6-226.69,53.66V-1961.48z M1580.67-1723.34
		c-71.08-2.71-139.05-17.73-201.84-43.02c52.91-73.57,121.92-134.83,201.84-178.55V-1723.34z M1580.67-1676.74v239.22h-314.8
		c4.01-105.41,35.11-204,86.58-288.96C1424.08-1696.48,1501.13-1679.52,1580.67-1676.74z M1580.67-1390.95v286.91
		c-70.4,2.46-138.83,16.05-203.3,39.93c-66.27-92.94-106.88-205.36-111.5-326.84H1580.67z M1580.67-1057.44v173.88
		c-66.13-36.18-124.78-84.38-173.04-141.62C1462.23-1043.98,1520.33-1055.14,1580.67-1057.44z M1627.24-1057.44
		c69.58,2.65,136.19,17.07,197.86,41.4c-54.7,62.34-121.99,113.35-197.86,149.05V-1057.44z M1627.24-1104.04v-286.91h347.48
		c-4.79,125.87-48.23,242.01-118.8,336.84C1784.15-1084.22,1706.95-1101.25,1627.24-1104.04z M1627.24-1437.51v-239.22
		c89.1-3.11,175.09-24.02,253.83-61.1c55.67,87.48,89.45,190.18,93.65,300.32H1627.24z M1999.69-1870.76
		c-31.71,27.52-66.32,51.77-103.28,72.29c-19.64-26.74-41.42-52.19-65.32-76.1c-45.57-45.57-96.71-83.53-151.88-113.29
		c18.84-6.28,38.08-11.64,57.68-16.06C1835.81-1981.63,1925.62-1935.05,1999.69-1870.76z M1487.36-2007.35
		c25.27,4.96,49.98,11.48,74.02,19.49c-55.17,29.76-106.31,67.72-151.88,113.29c-27.6,27.6-52.38,57.25-74.28,88.59
		c-45.94-22.9-88.6-51.45-127-84.78C1286.35-1938.58,1382-1986.68,1487.36-2007.35z M1173.92-1838.55
		c41.61,36.72,87.16,67.62,135.67,92.26c-55.3,92.92-86.47,198.46-90.32,308.78H1000
		C1005.94-1593.49,1071.23-1734.5,1173.92-1838.55z M1000-1390.95h219.28c4.37,125.01,43.84,243.87,113.71,345.2
		c-46.94,21.51-91.37,48.7-132.43,81.24C1082.61-1070.41,1006.44-1221.89,1000-1390.95z M1237.54-933.86
		c38.1-29.13,79.74-53.83,124.17-73.35c14.86,18.48,30.78,36.3,47.79,53.31c45.57,45.57,96.71,83.53,151.88,113.29
		c-24.04,8.01-48.75,14.54-74.02,19.5C1394.82-839.27,1309.79-878.61,1237.54-933.86z M1736.9-824.55
		c-19.6-4.42-38.85-9.79-57.68-16.06c55.17-29.76,106.31-67.72,151.88-113.29c13.61-13.61,26.51-27.75,38.75-42.31
		c35.62,17.52,69.27,38.45,100.54,62.35C1902.39-881.87,1823.11-843.97,1736.9-824.55z M2007.36-964.51
		c-33.89-26.86-70.06-50.08-108.06-69.47c75.05-103.85,117.48-227.09,122.02-356.98h186.6
		C2201.48-1221.89,2125.3-1070.41,2007.36-964.51z"/>
</g>
<g>
	<path class="st0" d="M-511.83,3588.97c-124.34-101.77-163.47-122.15-163.47-122.15s-109.99-62.6-174.22,43.65
		c-48.19,79.72-109.2,91.84-136.67,92.93v0c0,0-12.21,0.31-30.84-5.88c-3.24-1.17-6.9-2.53-10.95-4.11c-0.01,0-0.02-0.01-0.03-0.01
		c-17.86-6.98-43.12-18.13-71.48-34.43l0.62-0.74c-4.75-2.08-9.76-4.65-15.1-7.89c-0.04-0.02-0.08-0.04-0.11-0.07
		c-11.99-7.26-23.66-15.17-34.99-23.54c-0.02-0.01-0.04-0.03-0.06-0.04c-1.75-1.29-3.49-2.59-5.21-3.9
		c-9.32-7.07-18.4-14.45-27.22-22.05c-22.59-19.47-43.49-40.38-62.37-61.21c-0.85-0.94-1.69-1.87-2.53-2.81
		c-11.45-12.76-22.14-25.46-32-37.76c-41.3-51.53-68.01-96-74.89-107.81l-0.15,0.06c-0.54-1.03-1.05-2.05-1.58-3.07
		c-0.01-0.02-0.03-0.05-0.03-0.05l0,0c-15.66-30.5-25.94-57.54-32.16-76.4c0-0.01-0.01-0.02-0.01-0.03
		c-1.36-4.13-2.53-7.86-3.52-11.16c-5.18-18.94-4.21-31.11-4.21-31.11h0c2.56-27.37,17.94-87.65,100.13-131.48
		c109.54-58.42,52.95-171.62,52.95-171.62s-18.26-40.17-113.2-169.79c-71.5-97.62-136.77-72.03-164.65-53.43
		c-0.01,0-0.01,0-0.02,0.01c-5.9,3.57-16.75,12.64-22.74,17.78c-1.26,1.05-2.66,2.25-4.18,3.62c-0.02,0.02-0.08,0.07-0.08,0.07l0,0
		c-24.13,21.65-79.72,83.72-142.44,236.44c-65.64,159.81,40.46,369.81,89.95,453.93l0,0c0,0,22.4,38.52,54.71,86.62
		c0.03,0.04,111.12,183.76,297.81,310.87c36.97,27.07,64.35,45.03,64.35,45.03l0,0c81.34,53.94,285.33,171.17,448.44,114.21
		c155.87-54.43,220.84-106.6,243.75-129.53l0,0c0,0,0.06-0.06,0.08-0.08c1.44-1.44,2.72-2.77,3.84-3.98
		c5.45-5.71,15.09-16.06,18.97-21.75c0-0.01,0.01-0.01,0.01-0.02C-447.26,3729.41-418.19,3665.61-511.83,3588.97z"/>
	<path class="st0" d="M-1355.08,3288.13c-0.01-0.02-0.02-0.04-0.03-0.06l0,0C-1355.11,3288.07-1355.09,3288.11-1355.08,3288.13z"/>
	<path class="st0" d="M-1113.98,3550.34c-11.42-7.04-23.2-14.88-35.1-23.61c11.33,8.37,23,16.28,34.99,23.54
		C-1114.05,3550.29-1114.01,3550.31-1113.98,3550.34z"/>
	<path class="st0" d="M-1149.13,3526.69c-1.75-1.29-3.49-2.59-5.21-3.9"/>
</g>
<g>
	<path class="st0" d="M516.32,2657c-303.9,0-550.25,246.36-550.25,550.25c0,98.81,26.06,191.52,71.66,271.67l478.59,919.99
		l478.59-919.99c45.6-80.15,71.66-172.86,71.66-271.67C1066.57,2903.36,820.22,2657,516.32,2657z M516.32,2967.96
		c132.16,0,239.3,107.14,239.3,239.3c0,132.16-107.14,239.3-239.3,239.3s-239.3-107.14-239.3-239.3
		C277.02,3075.09,384.16,2967.96,516.32,2967.96z"/>
</g>
<path class="st1" d="M3877.29,1784H2802.71c-104.78,0-189.71-84.94-189.71-189.71V787.71c0-104.78,84.94-189.71,189.71-189.71
	h1074.57c104.78,0,189.71,84.94,189.71,189.71v806.57C4067,1699.06,3982.06,1784,3877.29,1784z"/>
<path class="st2" d="M3238.64,1307.6l-723.62-529.47c-134.62-98.5-64.95-311.72,101.86-311.72h1447.24
	c166.81,0,236.48,213.21,101.86,311.72l-723.62,529.47C3381.71,1351.98,3299.29,1351.98,3238.64,1307.6z"/>
<path class="st2" d="M3238.64,1132.9l-932.62,682.39c-134.62,98.5-64.95,311.72,101.86,311.72h1865.24
	c166.81,0,236.48-213.21,101.86-311.72l-932.62-682.39C3381.71,1088.51,3299.29,1088.51,3238.64,1132.9z"/>
<g>
	<polygon class="st3" points="414.13,737.14 414.13,1272.83 780.2,1004.99 	"/>
	<path class="st3" d="M885.53,1004.99l71.77,52.52h0c43.15,31.57,101.14,31.57,144.29,0l71.77-52.52l52.67-38.53l417.84-305.73
		v-40.06c0-75.8-61.67-137.47-137.47-137.47H551.6c-75.8,0-137.47,61.67-137.47,137.47v39.41l418.73,306.38L885.53,1004.99z"/>
	<path class="st3" d="M1138.32,1107.7c-31.81,23.28-69.46,35.58-108.87,35.58c-39.41,0-77.06-12.3-108.87-35.58c0,0,0,0,0,0
		l-87.71-64.18L414.68,1349.5c6.18,70.12,65.22,125.3,136.92,125.3h954.8c71.91,0,131.09-55.5,136.98-125.91l-417.35-305.37
		L1138.32,1107.7z"/>
	<polygon class="st3" points="1643.87,1272.18 1643.87,737.79 1278.69,1004.99 	"/>
	<path class="st0" d="M1705.99,615.27c-1.35-51.31-21.97-99.35-58.4-135.79c-37.71-37.71-87.85-58.48-141.19-58.48H551.6
		c-53.33,0-103.47,20.77-141.18,58.48c-36.29,36.29-56.88,84.08-58.38,135.15c-0.06,2.01-0.1,4.02-0.1,6.03v70.97v626.71v18.99
		c0,18.13,2.41,35.89,7.05,52.91c9.03,33.07,26.53,63.38,51.43,88.27c37.71,37.71,87.85,58.48,141.18,58.48h954.8
		c53.33,0,103.47-20.77,141.19-58.48c25.03-25.03,42.58-55.54,51.57-88.82c4.55-16.86,6.91-34.43,6.91-52.37v-19.64V692.28v-71.62
		C1706.06,618.86,1706.04,617.06,1705.99,615.27z M414.13,620.67c0-75.8,61.67-137.47,137.47-137.47h954.8
		c75.8,0,137.47,61.67,137.47,137.47v40.06l-417.84,305.73l-52.67,38.53l-71.77,52.52c-43.15,31.57-101.14,31.57-144.29,0h0
		l-71.77-52.52l-52.66-38.53L414.13,660.07V620.67z M414.13,737.14l366.06,267.85l-366.06,267.85V737.14z M1506.4,1474.8H551.6
		c-71.7,0-130.74-55.18-136.92-125.3l418.18-305.98l87.71,64.18c0,0,0,0,0,0c31.81,23.28,69.46,35.58,108.87,35.58
		c39.41,0,77.06-12.3,108.87-35.58l87.71-64.18l417.35,305.37C1637.49,1419.3,1578.31,1474.8,1506.4,1474.8z M1643.87,1272.18
		l-365.18-267.2l365.18-267.2V1272.18z"/>
</g>
</svg>
