<?xml version="1.0" encoding="utf-8"?>
<!-- Generator: Adobe Illustrator 23.0.1, SVG Export Plug-In . SVG Version: 6.00 Build 0)  -->
<svg version="1.1" id="Layer_1" xmlns="http://www.w3.org/2000/svg" xmlns:xlink="http://www.w3.org/1999/xlink" x="0px" y="0px"
	 viewBox="0 0 2000 2000" style="enable-background:new 0 0 2000 2000;" xml:space="preserve">
<style type="text/css">
	.st0{fill:#29ABE2;}
</style>
<g>
	<path class="st0" d="M4999.52,3562.49c-5.71-163.39-71.38-316.27-186.51-433.25c-1.24-1.26-2.46-2.55-3.71-3.8
		c-9.84-9.84-19.96-19.28-30.3-28.41c-55.81-49.24-118.71-87.99-186.3-115.26c-35.74-14.42-72.79-25.62-110.79-33.47
		c-35.81-7.39-72.46-11.79-109.66-13.09c-7.74-0.27-15.5-0.45-23.28-0.45c-7.79,0-15.54,0.18-23.28,0.45
		c-31.56,1.1-62.73,4.43-93.32,9.93c-43.44,7.81-85.72,19.99-126.31,36.3c-67.9,27.28-131.09,66.15-187.12,115.58
		c-10.34,9.12-20.47,18.57-30.3,28.41c-1.26,1.26-2.47,2.54-3.71,3.8c-115.14,116.98-180.81,269.86-186.51,433.25
		c-0.27,7.74-0.45,15.5-0.45,23.28c0,7.79,0.18,15.54,0.45,23.28c5.77,165.16,72.77,319.6,190.22,437.05
		c6.86,6.86,13.87,13.52,20.98,20.04c11.67,10.69,23.66,20.91,35.95,30.65c49.15,38.96,103.14,70.26,160.49,93.3
		c40.6,16.31,82.87,28.49,126.31,36.3c30.59,5.5,61.76,8.83,93.32,9.93c7.74,0.27,15.5,0.45,23.28,0.45
		c7.78,0,15.54-0.18,23.28-0.45c37.2-1.3,73.85-5.7,109.66-13.09c38-7.84,75.05-19.05,110.79-33.47
		c57.05-23.01,110.76-54.2,159.68-92.97c12.29-9.74,24.29-19.96,35.95-30.65c7.11-6.52,14.12-13.18,20.98-20.04
		c117.46-117.46,184.46-271.9,190.22-437.05c0.27-7.74,0.45-15.5,0.45-23.28C4999.97,3577.98,4999.79,3570.23,4999.52,3562.49z
		 M4952.92,3562.49h-186.6c-4.04-115.57-38.06-225.88-98.38-321.96c39.36-22.19,76.55-48.65,111.05-79.08
		C4881.68,3265.5,4946.98,3406.51,4952.92,3562.49z M4372.24,3038.52c89.8,42.25,167.58,105.95,226.69,184.48
		c-69.55,31.72-146.13,50.6-226.69,53.66V3038.52z M4325.67,3276.66c-71.08-2.71-139.05-17.73-201.84-43.02
		c52.91-73.57,121.92-134.83,201.84-178.55V3276.66z M4325.67,3323.26v239.22h-314.8c4.01-105.41,35.11-204,86.58-288.96
		C4169.08,3303.52,4246.13,3320.48,4325.67,3323.26z M4325.67,3609.05v286.91c-70.4,2.46-138.83,16.05-203.3,39.93
		c-66.27-92.94-106.88-205.36-111.5-326.84H4325.67z M4325.67,3942.56v173.88c-66.13-36.18-124.78-84.38-173.04-141.62
		C4207.23,3956.02,4265.33,3944.86,4325.67,3942.56z M4372.24,3942.56c69.58,2.65,136.19,17.07,197.86,41.4
		c-54.7,62.34-121.99,113.35-197.86,149.05V3942.56z M4372.24,3895.96v-286.91h347.48c-4.79,125.87-48.23,242.01-118.8,336.84
		C4529.15,3915.78,4451.95,3898.75,4372.24,3895.96z M4372.24,3562.49v-239.22c89.1-3.11,175.09-24.02,253.83-61.1
		c55.67,87.48,89.45,190.18,93.65,300.32H4372.24z M4744.69,3129.24c-31.71,27.52-66.32,51.77-103.28,72.29
		c-19.64-26.74-41.42-52.19-65.32-76.1c-45.57-45.57-96.71-83.53-151.88-113.29c18.84-6.28,38.08-11.64,57.68-16.06
		C4580.81,3018.37,4670.62,3064.95,4744.69,3129.24z M4232.36,2992.65c25.27,4.96,49.98,11.48,74.02,19.5
		c-55.17,29.76-106.31,67.72-151.88,113.29c-27.6,27.6-52.38,57.25-74.27,88.59c-45.94-22.9-88.6-51.45-127-84.78
		C4031.35,3061.42,4127,3013.32,4232.36,2992.65z M3918.93,3161.45c41.61,36.72,87.16,67.62,135.67,92.26
		c-55.3,92.92-86.47,198.46-90.32,308.78H3745C3750.94,3406.51,3816.23,3265.5,3918.93,3161.45z M3745,3609.05h219.28
		c4.37,125.01,43.84,243.87,113.71,345.2c-46.94,21.51-91.37,48.7-132.43,81.24C3827.61,3929.59,3751.44,3778.11,3745,3609.05z
		 M3982.54,4066.14c38.1-29.13,79.74-53.83,124.17-73.35c14.86,18.48,30.78,36.3,47.79,53.31c45.57,45.57,96.71,83.53,151.88,113.29
		c-24.04,8.01-48.75,14.54-74.02,19.5C4139.82,4160.73,4054.79,4121.39,3982.54,4066.14z M4481.9,4175.45
		c-19.6-4.42-38.85-9.79-57.68-16.06c55.17-29.76,106.31-67.72,151.88-113.29c13.61-13.61,26.51-27.75,38.75-42.31
		c35.62,17.52,69.27,38.45,100.54,62.35C4647.39,4118.13,4568.11,4156.03,4481.9,4175.45z M4752.36,4035.49
		c-33.89-26.86-70.06-50.08-108.06-69.47c75.05-103.85,117.48-227.09,122.02-356.98h186.6
		C4946.48,3778.11,4870.3,3929.59,4752.36,4035.49z"/>
</g>
<g>
	<path class="st0" d="M1633.17,1278.97c-124.34-101.77-163.47-122.15-163.47-122.15s-109.99-62.6-174.22,43.65
		c-48.19,79.72-109.2,91.84-136.67,92.93v0c0,0-12.21,0.31-30.84-5.88c-3.24-1.17-6.9-2.53-10.95-4.11c-0.01,0-0.02-0.01-0.03-0.01
		c-17.86-6.98-43.12-18.13-71.48-34.43l0.62-0.74c-4.75-2.08-9.76-4.65-15.1-7.89c-0.04-0.02-0.08-0.04-0.11-0.07
		c-11.99-7.26-23.66-15.17-34.99-23.54c-0.02-0.01-0.04-0.03-0.06-0.04c-1.75-1.29-3.49-2.59-5.21-3.9
		c-9.32-7.07-18.4-14.45-27.22-22.05c-22.59-19.47-43.49-40.38-62.37-61.21c-0.85-0.94-1.69-1.87-2.53-2.81
		c-11.45-12.76-22.14-25.46-32-37.76c-41.3-51.53-68.01-96-74.89-107.81l-0.15,0.06c-0.54-1.03-1.05-2.05-1.58-3.07
		c-0.01-0.02-0.03-0.05-0.03-0.05l0,0c-15.66-30.5-25.94-57.54-32.16-76.4c0-0.01-0.01-0.02-0.01-0.03
		c-1.36-4.13-2.53-7.86-3.52-11.16c-5.18-18.94-4.21-31.11-4.21-31.11h0c2.56-27.37,17.94-87.65,100.13-131.48
		c109.54-58.42,52.95-171.62,52.95-171.62s-18.26-40.17-113.2-169.79c-71.5-97.62-136.77-72.03-164.65-53.43
		c-0.01,0-0.01,0-0.02,0.01c-5.9,3.57-16.75,12.64-22.74,17.78c-1.26,1.05-2.66,2.25-4.18,3.62c-0.02,0.02-0.08,0.07-0.08,0.07l0,0
		c-24.13,21.65-79.72,83.72-142.44,236.44c-65.64,159.81,40.46,369.81,89.95,453.93l0,0c0,0,22.4,38.52,54.71,86.62
		c0.03,0.04,111.12,183.76,297.81,310.87c36.97,27.07,64.35,45.03,64.35,45.03l0,0c81.34,53.94,285.33,171.17,448.44,114.21
		c155.87-54.43,220.84-106.6,243.75-129.53l0,0c0,0,0.06-0.06,0.08-0.08c1.44-1.44,2.72-2.77,3.84-3.98
		c5.45-5.71,15.09-16.06,18.97-21.75c0-0.01,0.01-0.01,0.01-0.02C1697.74,1419.41,1726.81,1355.61,1633.17,1278.97z"/>
	<path class="st0" d="M789.92,978.13c-0.01-0.02-0.02-0.04-0.03-0.06l0,0C789.89,978.07,789.91,978.11,789.92,978.13z"/>
	<path class="st0" d="M1031.02,1240.34c-11.42-7.04-23.2-14.88-35.1-23.61c11.33,8.37,23,16.28,34.99,23.54
		C1030.95,1240.29,1030.99,1240.31,1031.02,1240.34z"/>
	<path class="st0" d="M995.87,1216.69c-1.75-1.29-3.49-2.59-5.21-3.9"/>
</g>
<g>
	<path class="st0" d="M516.32,2657c-303.9,0-550.25,246.36-550.25,550.25c0,98.81,26.06,191.52,71.66,271.67l478.59,919.99
		l478.59-919.99c45.6-80.15,71.66-172.86,71.66-271.67C1066.57,2903.36,820.22,2657,516.32,2657z M516.32,2967.96
		c132.16,0,239.3,107.14,239.3,239.3c0,132.16-107.14,239.3-239.3,239.3s-239.3-107.14-239.3-239.3
		C277.02,3075.09,384.16,2967.96,516.32,2967.96z"/>
</g>
</svg>
