<?xml version="1.0" encoding="utf-8"?>
<!-- Generator: Adobe Illustrator 23.0.1, SVG Export Plug-In . SVG Version: 6.00 Build 0)  -->
<svg version="1.1" id="Layer_1" xmlns="http://www.w3.org/2000/svg" xmlns:xlink="http://www.w3.org/1999/xlink" x="0px" y="0px"
	 viewBox="0 0 2844 328" style="enable-background:new 0 0 2844 328;" xml:space="preserve">
<style type="text/css">
	.st0{fill:#29ABE2;}
	.st1{fill:#FFFFFF;}
</style>
<g>
	<path class="st0" d="M360.1,14.8L31.7,164.4l328.4,151.5l322-151.5L360.1,14.8z M360,290.8L86.1,164.5L360,39.8l268.5,124.7
		L360,290.8z"/>
	<path class="st1" d="M475.8,125.3c-9.4-8.1-22.8-12.2-40.2-12.2H393h-18.1v17H393h3.6v0h39.2c10.3,0,18.1,2.5,23.4,7.5
		c5.3,5,7.9,12.4,7.9,22.1c0,10.9-3.2,18.7-9.5,23.5c-6.3,4.7-17.1,7.1-32.3,7.1h-10.4v0H393v-18.1h-18.1v18.1v17.9H393h36.9
		c9.6,0,17.4-0.6,23.6-1.7c6.1-1.2,11.3-3.1,15.4-5.6c6.6-4.1,11.8-9.7,15.5-16.8c3.6-7.1,5.5-15.1,5.5-24
		C489.9,145.1,485.2,133.5,475.8,125.3z"/>
	<path class="st1" d="M327,190.2h-48.3v-59.9h0.1H334v18.1h18.1v-2.6v-15.5v-14.7v-2.5h-15.2h-56.7c-1.2,0-2.3,0-3.4,0.1
		c-7.4,0.4-12.5,1.9-15.3,4.7c-3.2,3.2-4.9,9.1-4.9,17.7v50.1c0,8.7,1.6,14.6,4.9,17.7c2.8,2.8,7.9,4.3,15.3,4.6
		c1.1,0.1,2.2,0.1,3.4,0.1h56.7c1.1,0,2.1,0,3.1-0.1h12.2v-17.9L327,190.2L327,190.2z"/>
</g>
<g>
	<path class="st1" d="M945.7,207.3c-3.8-1.9-6.5-4.7-8-8.3c-1.6-3.7-2.3-8.4-2.3-14.3v-31.8c0-9.2,2.1-15.9,6.2-20.2
		c4.1-4.3,10.8-6.4,19.9-6.4h42.9c6.2,0,11.1,0.3,14.7,1c3.7,0.7,5.5,1.4,5.5,2.3l-2.8,11.8c-6.5-0.9-22.7-1.4-48.8-1.4h-7.3
		c-7.6,0-11.4,3.4-11.4,10.1v36.3c0,3.3,0.9,5.8,2.6,7.5c1.8,1.7,4.7,2.6,8.8,2.6h5.8c27.3,0,44.9-0.5,52.8-1.6l5.8,9.4
		c0,0.7-0.9,1.4-2.6,2.3c-1.8,0.9-4.8,1.7-9.1,2.4c-4.3,0.7-10.1,1.1-17.3,1.1h-39.6C954.7,210.2,949.5,209.2,945.7,207.3z"/>
	<path class="st1" d="M1076.6,204.1c-3.8-4.1-5.8-10.5-5.8-19.4v-32.9c0-8.6,1.9-15,5.7-19.2c3.8-4.1,10.6-6.2,20.4-6.2h41.6
		c9.6,0,16.3,2.1,20.1,6.2c3.8,4.1,5.8,10.5,5.8,19.2v32.9c0,8.7-1.9,15.2-5.8,19.3c-3.8,4.1-10.6,6.2-20.1,6.2h-41.6
		C1087.2,210.2,1080.5,208.2,1076.6,204.1z M1134.5,196.5c3.5,0,6.2-0.9,8.2-2.7c1.9-1.8,2.9-4.3,2.9-7.4v-36.3c0-2.8-1-5.1-3.1-7
		c-2-1.9-4.7-2.9-8-2.9H1101c-3.4,0-6.2,0.9-8.3,2.7c-2.1,1.8-3.1,4.2-3.1,7.3v36.3c0,3.1,1,5.6,3.1,7.4c2,1.8,4.8,2.7,8.3,2.7
		H1134.5z"/>
	<path class="st1" d="M1215.3,137.9l-1.4-11.4h21.6l32.2,57l33.3-57h19.2v83.7h-18.8v-53.1h-1.6l-5.6,12.4l-17.9,32.2h-17.2
		l-17.9-32.2l-5.7-12.4h-1.4v53.1h-18.8V137.9z"/>
	<path class="st1" d="M1372.5,137.9l-1.4-11.4h21.6l32.2,57l33.3-57h19.2v83.7h-18.8v-53.1h-1.6l-5.6,12.4l-17.9,32.2h-17.2
		l-17.9-32.2l-5.7-12.4h-1.4v53.1h-18.8V137.9z"/>
	<path class="st1" d="M1533.7,205c-3.6-4.4-5.4-10.7-5.4-18.9v-59.7h18.8v60.2c0,4.2,1,7.1,3,8.8c2,1.7,4.8,2.5,8.4,2.5h30.2
		c7.6,0,11.4-3.7,11.4-11.2v-60.2h18.8v59.7c0,8.3-1.8,14.6-5.3,18.9c-3.5,4.4-9.4,6.6-17.8,6.6h-44.3
		C1543.2,211.6,1537.3,209.4,1533.7,205z"/>
	<path class="st1" d="M1671.1,137.9l-1.4-11.4h20.5l48.4,50.7l5.6,7.7h1.6v-58.4h18.8v83.7h-18.1l-49.6-51.5l-5.6-6.7h-1.4v58.2
		h-18.8V137.9z"/>
	<path class="st1" d="M1815.3,126.5h18.8v83.7h-18.8V126.5z"/>
	<path class="st1" d="M1984.7,210.8c4.9,0.6,8,0.9,9.3,0.9l-3.1,12.2c-0.6,0.2-1.7,0.4-3.4,0.7c-1.7,0.3-3.8,0.4-6.1,0.4
		c-3.8,0-7.4-0.4-10.8-1.1c-3.4-0.7-7.5-1.8-12.4-3.3c-4.3-1.4-7.4-2.5-9.4-3.3c-6.6-2.5-12.6-4.3-17.9-5.4
		c-5.3-1.1-12.4-1.7-21.3-1.7c-9.7,0-16.4-2-20.3-6.1c-3.8-4.1-5.8-10.5-5.8-19.4v-32.9c0-8.6,1.9-15,5.7-19.2
		c3.8-4.1,10.6-6.2,20.4-6.2h41.6c9.6,0,16.3,2.1,20.1,6.2c3.8,4.1,5.8,10.5,5.8,19.2v18.7c0,7.2-0.9,12.9-2.6,17.2
		c-1.8,4.2-4.9,7.8-9.3,10.6c-1.9,1.2-4.3,2.4-7.1,3.6c-2.8,1.1-5.6,2-8.1,2.7c6.5,1.1,13.6,2.5,21.4,4.1
		C1975.3,209.5,1979.8,210.2,1984.7,210.8z M1905.4,193.8c2,1.8,4.8,2.7,8.3,2.7h17.7c6.6,0,11.7-0.8,15.6-2.3
		c3.8-1.5,6.7-4.1,8.5-7.8c1.9-3.7,2.8-8.9,2.8-15.7v-20.6c0-2.8-1-5.1-3.1-7c-2-1.9-4.7-2.9-8-2.9h-33.5c-3.4,0-6.2,0.9-8.3,2.7
		c-2.1,1.8-3.1,4.2-3.1,7.3v36.3C1902.3,189.5,1903.3,192,1905.4,193.8z"/>
	<path class="st1" d="M2088.6,137.9l-1.4-11.4h66.1c7.5,0,13.3,0.9,17.5,2.8c4.2,1.9,7.1,4.6,8.8,8.3c1.7,3.7,2.5,8.4,2.5,14.3v32.9
		c0,6-0.8,10.8-2.4,14.5c-1.6,3.7-4.5,6.4-8.7,8.3c-4.2,1.9-10.1,2.8-17.7,2.8h-64.7V137.9z M2152.1,196.5c7.3,0,11-3.4,11.1-10.1
		v-36.3c0-6.6-3.7-10-11.1-10h-44.7v56.4H2152.1z"/>
	<path class="st1" d="M2230,126.5h88.6v13.7h-69.8v19.7h53.3v14.1h-53.3v22.6h70.3l5.7,12.1c-0.3,0.5-1.8,0.9-4.6,1.1
		c-2.8,0.3-6.9,0.4-12.5,0.4H2230V126.5z"/>
	<path class="st1" d="M2369,209.4c-3.2-0.5-4.8-1.2-4.8-2.1l5.7-12.4c8.4,1,25.7,1.6,52.1,1.6h2.7c4.1,0,7-0.7,8.7-2.2
		c1.7-1.5,2.6-4,2.6-7.5V184c0-3.4-0.7-5.8-2.2-7.2c-1.5-1.4-4.5-2.1-9-2.1h-33c-9.7,0-16.7-1.8-21-5.3c-4.3-3.6-6.5-9.4-6.5-17.4
		v-2.3c0-7,2-12.6,6-16.9c4-4.2,10.7-6.3,20.1-6.3h38.7c6.3,0,11.4,0.3,15.5,0.9c4.1,0.6,6.1,1.4,6.1,2.2l-2.8,12
		c-9.1-0.9-26.4-1.4-52-1.4l-1.6-0.1c-4.1,0-7,0.8-8.6,2.4c-1.7,1.6-2.5,3.9-2.6,6.8v2.4c0,3.2,0.9,5.6,2.6,7.1
		c1.8,1.5,4.7,2.3,8.8,2.3h31.6c6.6,0,11.9,0.6,16,1.9c4.1,1.3,7.3,3.6,9.5,6.9c2.2,3.3,3.3,8.1,3.3,14.2v2.3
		c0,15.9-8.2,23.8-24.5,23.8h-47.3C2376.9,210.2,2372.2,209.9,2369,209.4z"/>
	<path class="st1" d="M2502.8,126.5h18.8v83.7h-18.8V126.5z"/>
	<path class="st1" d="M2581.4,207.3c-3.8-1.9-6.5-4.7-8-8.3c-1.6-3.7-2.3-8.4-2.3-14.3v-31.8c0-9.2,2.1-15.9,6.2-20.2
		c4.1-4.3,10.8-6.4,19.9-6.4h42.9c6.2,0,11.1,0.3,14.7,1c3.7,0.7,5.5,1.4,5.5,2.3l-2.8,11.8c-6.5-0.9-22.7-1.4-48.8-1.4h-7.3
		c-7.6,0-11.4,3.4-11.4,10.1v36.3c0,3.3,0.9,5.8,2.6,7.5c1.8,1.7,4.7,2.6,8.8,2.6h5.8c14.9,0,27.8-0.2,38.6-0.6v-19.4l-8.5,0.1
		l-18.7,1.4v-14h45.9v40l1.4,3c0,0.9-2.1,1.6-6.4,2.1c-4.3,0.6-10.9,0.9-19.8,0.9h-42.4C2590.5,210.2,2585.2,209.2,2581.4,207.3z"/>
	<path class="st1" d="M2715.2,137.9l-1.4-11.4h20.5l48.4,50.7l5.6,7.7h1.6v-58.4h18.8v83.7h-18.1l-49.6-51.5l-5.6-6.7h-1.4v58.2
		h-18.8V137.9z"/>
</g>
</svg>
