<?xml version="1.0" encoding="utf-8"?>
<!-- Generator: Adobe Illustrator 23.0.1, SVG Export Plug-In . SVG Version: 6.00 Build 0)  -->
<svg version="1.1" id="Layer_1" xmlns="http://www.w3.org/2000/svg" xmlns:xlink="http://www.w3.org/1999/xlink" x="0px" y="0px"
	 viewBox="0 0 2706 328" style="enable-background:new 0 0 2706 328;" xml:space="preserve">
<style type="text/css">
	.st0{fill:#29ABE2;}
	.st1{fill:#FFFFFF;}
	.st2{enable-background:new    ;}
</style>
<g>
	<path class="st0" d="M336.1,13.8L7.7,163.4l328.4,151.5l322-151.5L336.1,13.8z M336,289.8L62.2,163.5L336,38.8l268.5,124.7
		L336,289.8z"/>
	<path class="st1" d="M451.8,124.3c-9.4-8.2-22.8-12.2-40.2-12.2H369h-18.1v17H369h3.6v0h39.2c10.3,0,18.1,2.5,23.4,7.5
		c5.3,5,7.9,12.4,7.9,22.1c0,10.9-3.2,18.7-9.5,23.5c-6.3,4.7-17.1,7.1-32.4,7.1h-10.4v0H369v-18.1h-18.1v18.1v17.9H369h36.9
		c9.6,0,17.5-0.6,23.6-1.7c6.1-1.2,11.3-3.1,15.4-5.6c6.6-4.1,11.8-9.7,15.5-16.8c3.6-7.1,5.5-15.1,5.5-24
		C465.9,144.1,461.2,132.5,451.8,124.3z"/>
	<path class="st1" d="M303,189.2h-48.4v-59.9h0.1H310v18.1h18.1v-2.6v-15.5v-14.8v-2.5h-15.2h-56.7c-1.2,0-2.3,0-3.4,0.1
		c-7.4,0.3-12.5,1.9-15.3,4.7c-3.2,3.2-4.9,9.1-4.9,17.7v50.1c0,8.7,1.6,14.6,4.9,17.8c2.8,2.8,7.9,4.3,15.3,4.6
		c1.1,0.1,2.2,0.1,3.4,0.1h56.7c1.1,0,2.1,0,3.1-0.1h12.2v-17.9L303,189.2L303,189.2L303,189.2z"/>
</g>
<g class="st2">
	<path class="st1" d="M933.6,143v51.3h54v-17.5l20.2,4.1v9.7c0,15.4-5.2,19.4-21.6,19.4H935c-16.5,0-21.4-4.3-21.4-19.4v-43.3
		c0-15.4,5.1-19.4,21.4-19.4h51.3c16.3,0,21.6,3.9,21.6,19.4v8l-20.2,2.9V143H933.6z"/>
	<path class="st1" d="M1060.1,127.9h63.6c16.1,0,21.4,3.7,21.4,19.4v43.3c0,15.5-5.2,19.4-21.4,19.4h-63.6
		c-16.3,0-21.4-3.9-21.4-19.4v-43.3C1038.7,131.5,1044,127.9,1060.1,127.9z M1125,194.3V143h-66.3v51.3H1125z"/>
	<path class="st1" d="M1179.7,127.9h16.1l40.2,48.8l40-48.8h16.1v82.2h-18.7v-56.6l-36.7,46.6h-3.9l-37.1-45.3v55.2h-16.1V127.9z"/>
	<path class="st1" d="M1328.7,127.9h16.1l40.2,48.8l40-48.8h16.1v82.2h-18.7v-56.6l-36.7,46.6h-3.9l-37.1-45.3v55.2h-16.1V127.9z"/>
	<path class="st1" d="M1497.8,194.7h57.1v-66.9h20.2v62.8c0,15.4-5.2,19.4-21.6,19.4h-54.4c-16.3,0-21.4-4.1-21.4-19.4v-62.8h20
		V194.7z"/>
	<path class="st1" d="M1611.7,127.9h13.8l69.8,54.6v-54.6h18.1v82.2h-13.8l-69.6-55.4v55.4h-18.3V127.9z"/>
	<path class="st1" d="M1750.1,127.9h20v82.2h-20V127.9z"/>
	<path class="st1" d="M1826.1,127.9h63.6c15.9,0,21.4,3.3,21.4,19.4v43.1c0,15.4-5.2,19.4-21.4,19.4h-9.7l11.1,21.2h-20l-9.3-21.2
		h-35.6c-16.3,0-21.4-4.1-21.4-19.4v-43.1C1804.8,131.4,1810.2,127.9,1826.1,127.9z M1854.9,194.3l-8.6-17.7l14.4-5.4l11.3,23.1h19
		V143h-66.3v51.3H1854.9z"/>
	<path class="st1" d="M2020.9,127.9h55.4c32.5,0,49.4,15.4,49.4,40.8c0,27.8-18.3,41.4-54.4,41.4h-50.3V127.9z M2067,194.7
		c25.5,0,38.1-5.6,38.1-27c0-17.1-9.5-25.1-28.6-25.1h-35.4v52.1H2067z"/>
	<path class="st1" d="M2155.8,127.9h88.2v14.6h-68v17.9h39.7v14.2H2176v20.2h69v15.4h-89.2V127.9z"/>
	<path class="st1" d="M2293.4,142.6v17.3h53.5c16.3,0,21.4,3.9,21.4,19.4v11.3c0,15.4-5.1,19.4-21.4,19.4h-53.5
		c-16.3,0-21.6-4.1-21.6-19.4v-2.3l17.9-3.3v9.7h60.4v-18.9h-53.3c-16.1,0-21.6-3.9-21.6-19.4v-9.1c0-15.5,5.4-19.4,21.6-19.4h48.8
		c15.2,0,21.6,3.5,21.6,17.9v1.9l-17.3,3.7v-8.7H2293.4z"/>
	<path class="st1" d="M2402.8,127.9h20v82.2h-20V127.9z"/>
	<path class="st1" d="M2477.5,143v51.3h62.6v-17.5h-32.7v-14.6h52.3v28.4c0,15.4-5.1,19.4-21.4,19.4h-59.5
		c-16.3,0-21.4-4.1-21.4-19.4v-43.3c0-15.5,5.2-19.4,21.4-19.4h59.5c15.5,0,21.4,3.7,21.4,18.5c0,0.6,0,1.4,0,2.1l-19.6,3.3V143
		H2477.5z"/>
	<path class="st1" d="M2593.9,127.9h13.8l69.8,54.6v-54.6h18.1v82.2h-13.8l-69.6-55.4v55.4h-18.3V127.9z"/>
</g>
</svg>
