<?xml version="1.0" encoding="utf-8"?>
<!-- Generator: Adobe Illustrator 23.0.1, SVG Export Plug-In . SVG Version: 6.00 Build 0)  -->
<svg version="1.1" id="Layer_1" xmlns="http://www.w3.org/2000/svg" xmlns:xlink="http://www.w3.org/1999/xlink" x="0px" y="0px"
	 viewBox="0 0 2000 2000" style="enable-background:new 0 0 2000 2000;" xml:space="preserve">
<style type="text/css">
	.st0{fill:#29ABE2;}
	.st1{fill:none;stroke:#29ABE2;stroke-width:75;stroke-miterlimit:10;}
	.st2{fill:none;}
	.st3{fill:none;stroke:#29ABE2;stroke-width:75;stroke-linecap:round;stroke-miterlimit:10;}
	.st4{fill-rule:evenodd;clip-rule:evenodd;fill:none;stroke:#29ABE2;stroke-width:75;stroke-miterlimit:10;}
</style>
<path class="st0" d="M3196.38,1500.08c0,0-1019.43-96-155.43-1421.72c0,0-86.86,416,155.43,352
	c146.29-77.71,100.57-233.14,100.57-233.14s-106.53-320.7,206.94-618.1c0,0-146.75,352.95,161.44,842.1s33.9,854.86,33.9,854.86
	s-202.4,250.17-411.43,224c0,0,319.66-168.88,150.86-800c0,0-64,164.57-205.71,292.57c0,0-96-54.86-86.86-160
	C3146.1,832.65,2871.81,1079.51,3196.38,1500.08z"/>
<rect x="-2446" y="696" class="st0" width="2166" height="475"/>
<rect x="2276.5" y="29.4" class="st1" width="126" height="204.21"/>
<g>
	<path class="st0" d="M2064.26-2079.16c-80.23,0-145.51,65.27-145.51,145.51c0,80.23,65.27,145.51,145.51,145.51
		c80.23,0,145.51-65.27,145.51-145.51C2209.76-2013.89,2144.49-2079.16,2064.26-2079.16z M2064.26-1851.41
		c-45.35,0-82.24-36.89-82.24-82.24c0-45.35,36.89-82.24,82.24-82.24c45.35,0,82.24,36.89,82.24,82.24
		C2146.5-1888.3,2109.61-1851.41,2064.26-1851.41z"/>
	<path class="st0" d="M2656.56-2010.15v-379h-227.75v159.96L2142.04-2505h0l-47.21-45.52l-30.61-29.52l-9.83,9.45l-18.81,18.08
		l-0.02-0.02l-52.7,50.69l-0.06,0.06l-737.29,709.1l0.31,0.32h113.43l91.5-88V-758h414.75H2257h414.75v-1127.83l97.18,93.47h114.08
		L2656.56-2010.15z M2492.07-2325.89h101.22V-2071l-101.22-97.35V-2325.89z M2177.92-837.08h-233.34v-528.25h233.34V-837.08z
		 M2592.66-1899.91v45.97v1016.86H2257v-607.33h-391.5v607.33h-335.67v-985.01v-77.82v-56.51l23.47-22.57l36.18-34.8l474.61-456.46
		l364.72,350.77l114.43,110.05l8.62,8.29l23.02,22.14l17.79,17.11V-1899.91z"/>
</g>
<g>
	<path class="st2" d="M5023.8-783.56c-8.38-14.21-22.27-29.31-41.31-44.89c-128.47-105.15-175.61-133.24-181.3-136.51l-2.57-1.25
		l0.44,0.1c-7.23-3.68-27.58-11.88-48.04-11.88c-10.44,0-19.38,2.05-27.32,6.27c-10.8,5.74-20.81,16.16-29.77,30.97
		c-76.83,127.11-181.7,144.65-223.22,146.29l-77.96,3.08v-19.29c-0.44-0.17-0.88-0.34-1.33-0.51l-0.32-0.12l-0.47-0.19
		c-21.94-8.58-56.06-23.42-94.55-45.54l-77.37-44.47l3.58-4.3c-11.68-8.89-23.48-18.46-35.08-28.46
		c-27.11-23.36-54.21-49.95-80.54-79.01c-0.96-1.06-1.91-2.11-2.86-3.17l-0.37-0.41c-13.71-15.27-27.39-31.41-40.65-47.95
		c-24.44-30.49-44.89-59.11-60.65-82.52l-5.24,2.03l-31.02-59.43c-0.49-0.94-0.97-1.87-1.44-2.79l-29.99-53.09l3.9-3.26
		c-7.53-18.26-13.19-34.1-17.23-46.32l-0.08-0.23l-0.02-0.07c-1.65-5.02-3.23-10.03-4.69-14.88l-0.27-0.89l-0.24-0.89
		c-8.91-32.57-7.92-56.15-7.41-62.6l0.04-0.52l0.05-0.52c3.87-41.37,27.01-145.15,158.07-215.04c15.72-8.38,26.85-18.14,33.08-29
		c4.62-8.05,7-17.32,7.27-28.33c0.57-22.98-8.22-43.68-9.58-46.74l-1.34-2.54l0.26,0.3c-3.98-7.77-30.6-57.19-126.31-187.87
		c-24.86-33.94-50.13-53.41-69.33-53.41c-9.48,0-18.13,4.44-23.71,8.16l-1.06,0.7l-1.08,0.67l-0.05,0.03
		c-1.67,1.17-7.41,5.51-17.61,14.24l-0.38,0.33l-0.39,0.32c-0.83,0.7-1.73,1.47-2.66,2.29l-0.33,0.29
		c-9.29,8.33-28.76,28.18-54.85,67.5c-32.3,48.69-64.16,111.07-94.69,185.42c-14.03,34.16-20.36,74.16-18.83,118.9
		c1.4,40.82,9.31,85.91,23.52,134.03c27.53,93.24,72.71,176.97,97.19,218.58l1.97,3.34c6.41,10.83,29.59,49.52,60.5,95.53l1.02,1.52
		l0.87,1.44c0.81,1.33,32.52,53.01,89.06,121.1c33.19,39.97,68.34,77.71,104.47,112.2c44.66,42.62,90.93,80.31,137.51,112.03
		l1.06,0.72l1.04,0.76c41.53,30.41,72.8,50.98,73.12,51.18l0.14,0.09l0.16,0.1c37.22,24.68,96,60.29,164.66,89.79
		c78.99,33.94,150.61,51.14,212.88,51.14c31.93,0,61.48-4.66,87.82-13.86c75.88-26.5,139.88-54.96,190.23-84.59
		c40.66-23.93,61.53-42.31,70.35-51.14l0.21-0.21c0.92-0.92,1.77-1.81,2.54-2.63l0.34-0.37l0.35-0.37
		c9.26-9.7,13.9-15.2,15.16-16.81l0.15-0.22l0.67-0.96l0.7-0.94c4.69-6.28,10.14-16.08,9.4-27.1
		C5031.62-767.17,5028.83-775.03,5023.8-783.56z"/>
	<path class="st2" d="M4274.68-960.26c11.75,8.68,23.81,16.94,36.16,24.64C4298.49-943.31,4286.44-951.57,4274.68-960.26z"/>
	<polygon class="st0" points="3900.62,-1953.44 3900.62,-1953.44 3900.62,-1953.44 	"/>
	<path class="st0" d="M5030-886.48c-147.38-120.62-193.76-144.79-193.76-144.79s-38.15-21.71-85.22-21.71
		c-39.95,0-86.33,15.63-121.27,73.45c-57.11,94.49-129.44,108.86-162,110.14v0c0,0-0.12,0-0.36,0c-2.36,0-16.14-0.31-36.19-6.97
		c-3.84-1.38-8.18-3-12.98-4.87c-0.01,0-0.02-0.01-0.03-0.01c-21.17-8.27-51.11-21.48-84.73-40.81l0.73-0.88
		c-5.63-2.47-11.56-5.51-17.9-9.35c-0.05-0.03-0.09-0.05-0.14-0.08c-1.78-1.08-3.55-2.16-5.31-3.26
		c-12.35-7.7-24.41-15.96-36.16-24.64c-0.02-0.02-0.04-0.03-0.07-0.05l0,0l-22.29,30.16c-2.19-1.62-4.38-3.25-6.55-4.9l22.66-29.88
		c0,0,0,0,0,0c-11.05-8.38-21.8-17.13-32.26-26.14c-26.78-23.08-51.55-47.86-73.92-72.56c-1.01-1.11-2-2.22-3-3.33
		c-13.57-15.12-26.25-30.17-37.93-44.76c-48.95-61.07-80.61-113.79-88.76-127.79l-0.18,0.07c-0.64-1.22-1.25-2.43-1.87-3.64l0,0
		c0,0,0,0,0,0c0,0,0,0,0,0c-0.01-0.02-0.04-0.06-0.04-0.06l0,0c-18.56-36.15-30.74-68.2-38.12-90.56c0-0.01-0.01-0.02-0.01-0.03
		c-1.61-4.89-3-9.32-4.17-13.22c-6.14-22.45-4.99-36.88-4.99-36.88h0c3.03-32.44,21.27-103.89,118.69-155.84
		c129.84-69.25,62.76-203.42,62.76-203.42s-21.64-47.61-134.17-201.25c-47.84-65.32-93.34-84.1-129.83-84.1
		c-28.15,0-50.94,11.17-65.33,20.77c-0.01,0.01-0.01,0.01-0.02,0.01c-6.99,4.23-19.85,14.99-26.95,21.07
		c-1.5,1.25-3.15,2.67-4.95,4.29c-0.03,0.02-0.1,0.09-0.1,0.09l0,0c-28.6,25.66-94.49,99.23-168.83,280.25
		c-77.8,189.42,47.96,438.33,106.62,538.04h0c0,0,26.55,45.66,64.85,102.66c0.03,0.05,131.7,217.8,352.99,368.47
		c43.82,32.08,76.27,53.38,76.27,53.38l0,0C4313.51-587.48,4487.85-486,4654.15-486c38.38,0,76.3-5.4,112.55-18.06
		c184.74-64.51,261.75-126.35,288.91-153.53l0,0c0,0,0.07-0.07,0.09-0.1c1.71-1.71,3.22-3.29,4.55-4.71
		c6.46-6.77,17.89-19.03,22.49-25.78c0.01-0.01,0.01-0.01,0.01-0.02C5106.54-720.01,5140.98-795.64,5030-886.48z M5022.68-733.1
		l-0.7,0.94l-0.67,0.96l-0.15,0.22c-1.26,1.61-5.9,7.11-15.16,16.81l-0.35,0.37l-0.34,0.37c-0.77,0.83-1.62,1.71-2.54,2.63
		l-0.21,0.21c-8.82,8.83-29.69,27.21-70.35,51.14c-50.35,29.64-114.36,58.1-190.23,84.59c-26.34,9.2-55.89,13.86-87.82,13.86
		c-62.26,0-133.89-17.21-212.88-51.14c-68.66-29.5-127.44-65.11-164.66-89.79l-0.16-0.1l-0.14-0.09
		c-0.31-0.2-31.58-20.77-73.12-51.18l-1.04-0.76l-1.06-0.72c-46.59-31.72-92.86-69.41-137.51-112.03
		c-36.14-34.49-71.29-72.24-104.47-112.2c-56.54-68.09-88.25-119.77-89.06-121.1l-0.87-1.44l-1.02-1.52
		c-30.91-46.01-54.09-84.7-60.5-95.53l-1.97-3.34c-24.48-41.61-69.66-125.35-97.19-218.58c-14.21-48.12-22.12-93.21-23.52-134.03
		c-1.53-44.74,4.8-84.74,18.83-118.9c30.53-74.34,62.39-136.73,94.69-185.42c26.08-39.32,45.56-59.17,54.85-67.5l0.33-0.29
		c0.93-0.83,1.82-1.6,2.66-2.29l0.39-0.32l0.38-0.33c10.2-8.73,15.94-13.07,17.61-14.24l0.05-0.03l1.08-0.67l1.06-0.7
		c5.59-3.72,14.23-8.16,23.71-8.16c0,0,0,0,0,0h0c0,0,0,0,0,0c19.2,0,44.47,19.47,69.33,53.41
		c95.71,130.68,122.33,180.1,126.31,187.87l-0.26-0.3l1.34,2.54c1.36,3.06,10.15,23.77,9.58,46.74
		c-0.27,11.01-2.65,20.28-7.27,28.33c-6.23,10.86-17.36,20.62-33.08,29c-131.06,69.9-154.2,173.67-158.07,215.04l-0.05,0.52
		l-0.04,0.52c-0.51,6.45-1.49,30.04,7.41,62.6l0.24,0.89l0.27,0.89c1.46,4.85,3.03,9.86,4.69,14.88l0.02,0.07l0.08,0.23
		c4.03,12.23,9.7,28.06,17.23,46.32l-3.9,3.26l29.99,53.09c0.48,0.93,0.95,1.86,1.44,2.79l31.02,59.43l5.24-2.03
		c15.76,23.4,36.21,52.02,60.65,82.52c13.26,16.55,26.94,32.68,40.65,47.95l0.37,0.41c0.95,1.06,1.9,2.12,2.86,3.17
		c26.33,29.07,53.44,55.66,80.54,79.01c11.6,10,23.4,19.57,35.08,28.46l-3.58,4.3l77.37,44.47c38.49,22.12,72.62,36.96,94.55,45.54
		l0.47,0.19l0.32,0.12c0.44,0.17,0.88,0.34,1.33,0.51v19.29l77.96-3.08c41.52-1.64,146.39-19.18,223.22-146.29
		c8.96-14.81,18.97-25.24,29.77-30.97c7.94-4.22,16.88-6.27,27.32-6.27c20.45,0,40.81,8.19,48.04,11.88l-0.44-0.1l2.57,1.25
		c5.69,3.27,52.83,31.36,181.3,136.51c19.03,15.58,32.93,30.68,41.31,44.89c5.03,8.53,7.81,16.38,8.28,23.35
		C5032.82-749.18,5027.38-739.38,5022.68-733.1z"/>
	<path class="st0" d="M4030.48-1243.13L4030.48-1243.13c0,0,0.02,0.05,0.03,0.06c0,0,0,0,0,0
		C4030.5-1243.08,4030.49-1243.1,4030.48-1243.13z"/>
	<polygon class="st0" points="4030.51,-1243.06 4030.51,-1243.06 4030.51,-1243.06 	"/>
	<path class="st0" d="M4316.15-932.35c0.05,0.03,0.09,0.05,0.13,0.08c-13.54-8.35-27.5-17.64-41.61-27.98
		c11.75,8.68,23.81,16.94,36.16,24.64C4312.61-934.51,4314.38-933.43,4316.15-932.35z"/>
	<path class="st0" d="M4252.33-930.15l22.29-30.16c-2.07-1.53-4.13-3.07-6.18-4.62l-22.66,29.88
		C4247.94-933.4,4250.13-931.77,4252.33-930.15z"/>
</g>
<line class="st3" x1="4444.35" y1="-1672.6" x2="4553.5" y2="-2079.44"/>
<line class="st3" x1="4584.94" y1="-1545.06" x2="4911.68" y2="-1810.9"/>
<line class="st3" x1="4655.81" y1="-1389.38" x2="5077.03" y2="-1389.38"/>
<g>
	<path class="st0" d="M284.93-2300c46.91,0,85.07,38.16,85.07,85.07v879.85c0,46.91-38.16,85.07-85.07,85.07h-1362.85
		c-46.91,0-85.07-38.16-85.07-85.07v-879.85c0-46.91,38.16-85.07,85.07-85.07H284.93 M284.93-2375h-1362.85
		c-88.41,0-160.07,71.67-160.07,160.07v879.85c0,88.41,71.67,160.07,160.07,160.07H284.93c88.41,0,160.07-71.67,160.07-160.07
		v-879.85C445-2303.33,373.33-2375,284.93-2375L284.93-2375z"/>
</g>
<g>
	<path class="st0" d="M-311-1172v164h-150v-164H-311 M-236-1247h-300v314h300V-1247L-236-1247z"/>
</g>
<line class="st1" x1="-745" y1="-970.5" x2="-29" y2="-970.5"/>
<line class="st1" x1="-1201.5" y1="-1437.5" x2="398.5" y2="-1437.5"/>
<path class="st0" d="M4115.93,2356c46.91,0,85.07,38.16,85.07,85.07v1018.85c0,46.91-38.16,85.07-85.07,85.07H2753.07
	c-46.91,0-85.07-38.16-85.07-85.07V2441.07c0-46.91,38.16-85.07,85.07-85.07H4115.93 M4115.93,2281H2753.07
	c-88.41,0-160.07,71.67-160.07,160.07v1018.85c0,88.41,71.67,160.07,160.07,160.07h1362.85c88.41,0,160.07-71.67,160.07-160.07
	V2441.07C4276,2352.67,4204.33,2281,4115.93,2281L4115.93,2281z"/>
<rect x="2622.5" y="2469" class="st0" width="1581" height="75"/>
<line class="st1" x1="2791.5" y1="2506.5" x2="2791.5" y2="2318.5"/>
<rect x="2972" y="2340.5" class="st0" width="75" height="166"/>
<rect x="2972" y="2319" class="st0" width="75" height="188"/>
<rect x="3190" y="2341" class="st0" width="75" height="166"/>
<rect x="3190" y="2319" class="st0" width="75" height="188"/>
<rect x="3408" y="2341" class="st0" width="75" height="166"/>
<rect x="3408" y="2319" class="st0" width="75" height="188"/>
<rect x="3626" y="2341" class="st0" width="75" height="166"/>
<rect x="3626" y="2319" class="st0" width="75" height="188"/>
<line class="st1" x1="3881.5" y1="2507" x2="3881.5" y2="2341"/>
<line class="st1" x1="3881.5" y1="2507" x2="3881.5" y2="2319"/>
<line class="st1" x1="4099.5" y1="2507" x2="4099.5" y2="2341"/>
<g>
	<line class="st1" x1="2634.5" y1="3386" x2="4215.5" y2="3386"/>
</g>
<line class="st1" x1="2784.5" y1="3386" x2="2784.5" y2="3574"/>
<line class="st1" x1="3002.5" y1="3386" x2="3002.5" y2="3552"/>
<line class="st1" x1="3002.5" y1="3385.5" x2="3002.5" y2="3573.5"/>
<line class="st1" x1="3220.5" y1="3385.5" x2="3220.5" y2="3551.5"/>
<line class="st1" x1="3220.5" y1="3385.5" x2="3220.5" y2="3573.5"/>
<line class="st1" x1="3438.5" y1="3385.5" x2="3438.5" y2="3551.5"/>
<line class="st1" x1="3438.5" y1="3385.5" x2="3438.5" y2="3573.5"/>
<line class="st1" x1="3656.5" y1="3385.5" x2="3656.5" y2="3551.5"/>
<line class="st1" x1="3656.5" y1="3385.5" x2="3656.5" y2="3573.5"/>
<line class="st1" x1="3874.5" y1="3385.5" x2="3874.5" y2="3551.5"/>
<line class="st1" x1="3874.5" y1="3385.5" x2="3874.5" y2="3573.5"/>
<line class="st1" x1="4092.5" y1="3385.5" x2="4092.5" y2="3551.5"/>
<polygon class="st4" points="3644.5,2930.5 3331,3111.5 3331,2749.5 "/>
<polygon class="st4" points="1222.44,999.5 908.94,1180.5 908.94,818.5 "/>
<g>
	<polygon class="st2" points="1659.06,397.14 1516.06,397.28 1516.06,519 1659.06,519 	"/>
	<polygon class="st2" points="1441.06,519 1441.06,397.35 1298.06,397.49 1298.06,519 	"/>
	<polygon class="st2" points="994.19,397.79 851.19,397.93 851.19,519 994.19,519 	"/>
	<path class="st2" d="M1734.06,519h52.72l-0.05-46.25c-0.03-31.53-21.82-58.59-52.68-69.94V519z"/>
	<polygon class="st2" points="1223.06,397.57 1069.19,397.72 1069.19,519 1223.06,519 	"/>
	<polygon class="st2" points="776.19,398.01 633.19,398.15 633.19,519 776.19,519 	"/>
	<path class="st2" d="M253.86,594l0.77,787.25c0.04,41.76,38.24,75.7,85.15,75.65l478.5-0.47l86.55-0.09l38.53,66.73l77.32,133.92
		l77.41-134.08l38.57-66.8l86.65-0.09l479.32-0.47c46.91-0.05,85.04-34.06,85-75.82L1786.86,594H253.86z"/>
	<polygon class="st2" points="426.06,519 558.19,519 558.19,398.22 426.06,398.35 	"/>
	<path class="st2" d="M351.06,398.42l-12.32,0.01c-46.91,0.05-85.04,34.06-85,75.82l0.04,44.74h97.28V398.42z"/>
	<path class="st0" d="M1861.74,472.67c-0.08-78.7-71.81-142.43-160.21-142.34l-1362.85,1.34c-88.41,0.09-160.01,63.96-159.93,142.66
		l0.89,907c0.08,78.7,71.81,142.43,160.21,142.34l516.96-0.51L1020.69,1807l164.06-284.16l517.95-0.51
		c88.41-0.09,160.01-63.96,159.93-142.66L1861.74,472.67z M1786.74,472.75l0.05,46.25h-52.72V402.81
		C1764.92,414.16,1786.71,441.22,1786.74,472.75z M1441.06,397.35V519h-143V397.49L1441.06,397.35z M1516.06,397.28l143-0.14V519
		h-143V397.28z M1069.19,397.72l153.87-0.15V519h-153.87V397.72z M851.19,397.93l143-0.14V519h-143V397.93z M633.19,398.15l143-0.14
		V519h-143V398.15z M558.19,398.22V519H426.06V398.35L558.19,398.22z M253.74,474.26c-0.04-41.76,38.09-75.77,85-75.82l12.32-0.01
		V519h-97.28L253.74,474.26z M1702.63,1455.56l-479.32,0.47l-86.65,0.09l-38.57,66.8L1020.69,1657l-77.32-133.92l-38.53-66.73
		l-86.55,0.09l-478.5,0.47c-46.91,0.05-85.11-33.89-85.15-75.65L253.86,594h1533l0.77,785.74
		C1787.67,1421.51,1749.54,1455.52,1702.63,1455.56z"/>
</g>
</svg>
